<svg xmlns="http://www.w3.org/2000/svg" viewBox="0 0 576.075 107.535"><g transform="translate(-425.825 -405.54)"><path d="M15.63.87a1,1,0,0,0,.93.42h1.62c.27,0,.3-.15.12-.42L9.84-11.4l7.74-9.09c.21-.21.12-.42-.12-.42H15.78a1.429,1.429,0,0,0-1.02.42L5.49-9.06V-20.49a.38.38,0,0,0-.42-.42H3.75a.38.38,0,0,0-.42.42V.87a.38.38,0,0,0,.42.42H5.07A.38.38,0,0,0,5.49.87V-6.3L8.43-9.75ZM35.82-6.57,40.77-18.9c1.68,4.17,3.15,8.16,4.83,12.33Zm6.51-14.04a.525.525,0,0,0-.54-.36H39.96a.525.525,0,0,0-.54.36L30.6.87c-.09.27,0,.42.27.42h1.41c.24,0,.42-.03.57-.42.72-1.89,1.44-3.63,2.19-5.52H46.32L48.54.87c.15.39.33.42.57.42h1.44c.27,0,.36-.15.27-.42Zm24.3,21.9a.38.38,0,0,0,.42-.42V-20.49a.38.38,0,0,0-.42-.42H65.19a.38.38,0,0,0-.42.42V.87a.38.38,0,0,0,.42.42ZM82.38.99a13.223,13.223,0,0,0,4.68.78c3.84,0,7.38-2.37,7.38-6.33,0-3.09-2.58-4.74-5.19-6.24-1.92-1.11-5.07-2.67-5.07-4.77,0-2.61,2.19-3.87,4.83-3.87a7.766,7.766,0,0,1,3.66.66c.27.15.45.06.51-.27l.24-1.17q.09-.405-.36-.54a11.871,11.871,0,0,0-4.02-.6c-3.63,0-7.14,2.07-7.14,5.88,0,3.69,4.92,5.61,7.71,7.35,1.59,1.05,2.55,2.22,2.55,3.39,0,2.91-2.07,4.59-4.98,4.59a9,9,0,0,1-4.56-1.08c-.24-.15-.42-.03-.51.3L81.99.45C81.93.72,82.05.9,82.38.99Zm39.93-20.04a.38.38,0,0,0,.42-.42v-1.02a.38.38,0,0,0-.42-.42H107.67a.38.38,0,0,0-.42.42v1.02a.38.38,0,0,0,.42.42h6.18V.87a.38.38,0,0,0,.42.42h1.38a.38.38,0,0,0,.42-.42V-19.05ZM170.52-7.41a.4.4,0,0,0-.24-.54,18.9,18.9,0,0,1-5.58-3.57,23.646,23.646,0,0,0,3.54-4.8c.93-1.68.09-2.46-1.98-2.46h-9.9a.318.318,0,0,0-.36.36v1.05c0,.27.12.39.36.39h9.09c.57,0,.84.27.51.78a25.3,25.3,0,0,1-10.71,8.85.355.355,0,0,0-.21.51l.54,1.08c.12.21.33.15.54.06a28.136,28.136,0,0,0,7.2-4.5,25.029,25.029,0,0,0,6.06,3.96c.36.15.51.06.63-.21Zm-1.02-6.27c-.27,0-.39.12-.39.36v1.08c0,.24.12.36.39.36h4.98v8.4a.38.38,0,0,0,.42.42h1.23a.38.38,0,0,0,.42-.42V-23.04a.38.38,0,0,0-.42-.42H174.9a.38.38,0,0,0-.42.42v9.36Zm7.53,17.34c.21,0,.45-.12.45-.36V2.22c0-.21-.24-.36-.45-.36H162.24c-.57,0-.69-.06-.69-.63V-3.75a.38.38,0,0,0-.42-.42H159.9a.38.38,0,0,0-.42.42V1.38c0,1.65.39,2.28,2.28,2.28ZM166.14-22.29c0-.27-.15-.42-.45-.42h-6.78c-.3,0-.45.15-.45.42v.96a.4.4,0,0,0,.45.45h6.78a.4.4,0,0,0,.45-.45Zm38.25,7.23c.69-1.8.09-2.46-1.98-2.46h-8.04c-.27,0-.42.12-.42.36v1.05c0,.27.12.39.36.39h7.29c.54,0,.72.27.51.78-1.26,3.54-4.68,7.74-9,10.47a.461.461,0,0,0-.15.57l.75.96a.457.457,0,0,0,.51-.03,26.409,26.409,0,0,0,6.27-5.46,33.25,33.25,0,0,0,5.1,5.01c.33.24.42.24.63,0l.75-.96a.336.336,0,0,0-.03-.57,22.185,22.185,0,0,1-5.25-5.01A23.732,23.732,0,0,0,204.39-15.06Zm.87,3.33a.412.412,0,0,0-.45.39v1.02a.433.433,0,0,0,.45.39h3.69V2.64a.38.38,0,0,0,.42.42h1.14a.38.38,0,0,0,.42-.42V-22.53a.38.38,0,0,0-.42-.42h-1.14a.38.38,0,0,0-.42.42v10.8Zm10.98-11.31a.38.38,0,0,0-.42-.42h-1.14a.38.38,0,0,0-.42.42V3.78a.38.38,0,0,0,.42.42h1.14a.38.38,0,0,0,.42-.42Zm-13.53,1.62c0-.27-.15-.42-.45-.42h-5.61c-.3,0-.45.15-.45.42v.96a.4.4,0,0,0,.45.45h5.61a.4.4,0,0,0,.45-.45ZM252.48-2.7a.38.38,0,0,0,.42-.42V-12h4.14a.433.433,0,0,0,.45-.39v-1.02a.412.412,0,0,0-.45-.39H252.9v-9.24a.38.38,0,0,0-.42-.42h-1.23a.38.38,0,0,0-.42.42V-3.12a.38.38,0,0,0,.42.42Zm-3.15-6.57c-2.52.33-5.79.42-9.36.51v-6.09a.38.38,0,0,0-.42-.42h-1.23a.38.38,0,0,0-.42.42v6.09h-6.36c-.24,0-.45.12-.45.36v1.05a.433.433,0,0,0,.45.39h6.24a99.437,99.437,0,0,0,11.73-.6c.36-.03.42-.18.39-.42L249.78-9C249.75-9.21,249.69-9.3,249.33-9.27ZM253.8,3.66c.21,0,.45-.12.45-.36V2.22c0-.21-.24-.36-.45-.36H238.53c-.57,0-.69-.06-.69-.63V-3.84a.38.38,0,0,0-.42-.42h-1.23a.38.38,0,0,0-.42.42V1.35c0,1.65.39,2.31,2.28,2.31ZM233.55-21.57c-.21,0-.45.12-.45.36v1.08c0,.21.24.36.45.36h10.5c.57,0,.66.06.69.63a21.044,21.044,0,0,1-.81,6.78q-.135.495.36.54l1.2.09c.24.03.36-.21.45-.45a24.661,24.661,0,0,0,.84-6.99c-.09-1.65-.36-2.4-2.28-2.4Zm55.59,4.65c2.19-1.59,1.41-2.85-1.71-2.85H274.47c-.27,0-.39.12-.39.36v1.05c0,.27.12.39.39.39h11.94c.63,0,.75.3.06.66a48.61,48.61,0,0,1-13.92,4.65c-.24.09-.39.27-.3.48l.36,1.02c.09.21.27.27.57.21a53.8,53.8,0,0,0,9.3-2.55,94.9,94.9,0,0,0,9.66,2.25c.27.06.45-.03.48-.24l.27-1.02c.09-.27.06-.42-.27-.45a51.742,51.742,0,0,1-7.5-1.65A24.93,24.93,0,0,0,289.14-16.92ZM273.39-4.32c-.21,0-.45.12-.45.36v1.08c0,.21.24.36.45.36h15.45c.57,0,.69.06.69.63V4.08a.38.38,0,0,0,.42.42h1.23a.38.38,0,0,0,.42-.42V-2.04c0-1.65-.39-2.28-2.28-2.28ZM295.8-8.7a.43.43,0,0,0-.45-.39h-25.5a.412.412,0,0,0-.45.39v1.02a.433.433,0,0,0,.45.39h25.5a.454.454,0,0,0,.45-.39Zm-8.97-14.34c0-.27-.15-.42-.45-.42h-7.89c-.3,0-.45.15-.45.42v.96a.4.4,0,0,0,.45.45h7.89a.4.4,0,0,0,.45-.45ZM349.5-.51c0-4.02-5.73-4.89-9.36-4.89-3.54,0-9.33.93-9.33,4.89,0,4.05,5.76,4.92,9.33,4.92C343.74,4.41,349.5,3.57,349.5-.51Zm3.9-8.43a.43.43,0,0,0-.45-.39H341.19V-13.2h7.86c.27,0,.39-.15.39-.42v-.99c0-.27-.12-.39-.39-.39H334.08c-.57,0-.72-.21-.72-.78v-4.5c0-.6.15-.78.72-.78h14.76c.27,0,.39-.15.39-.42v-.99c0-.27-.12-.39-.39-.39H333.57c-1.77,0-2.28.45-2.28,2.13v5.4c0,1.68.51,2.13,2.28,2.13h5.55v3.87H327.45a.412.412,0,0,0-.45.39v1.02a.433.433,0,0,0,.45.39h25.5a.454.454,0,0,0,.45-.39ZM347.31-.48c0,2.58-4.92,3-7.17,3-2.28,0-7.14-.42-7.14-3,0-2.61,4.86-3.03,7.14-3.03C342.36-3.51,347.31-3.09,347.31-.48Zm34.05-11.55c0-4.77-2.07-9.66-7.2-9.66-5.31,0-7.08,4.95-7.08,9.66,0,4.47,1.77,9.63,7.08,9.63C379.29-2.4,381.36-7.59,381.36-12.03Zm-2.13-.03c0,3.48-1.41,7.74-5.07,7.74-3.87,0-4.95-4.26-4.95-7.74,0-3.63,1.14-7.71,4.95-7.71C377.82-19.77,379.23-15.69,379.23-12.06ZM387.48,4.2a.38.38,0,0,0,.42-.42v-14.1h4.14a.433.433,0,0,0,.45-.39v-1.02a.412.412,0,0,0-.45-.39H387.9V-23.04a.38.38,0,0,0-.42-.42h-1.23a.38.38,0,0,0-.42.42V3.78a.38.38,0,0,0,.42.42Zm39.75,0a.38.38,0,0,0,.42-.42V-23.04a.38.38,0,0,0-.42-.42H426a.38.38,0,0,0-.42.42V3.78a.38.38,0,0,0,.42.42ZM409.17-2.58a58.62,58.62,0,0,0,13.98-1.26c.33-.09.45-.24.39-.51l-.18-.99a.372.372,0,0,0-.51-.3,54.724,54.724,0,0,1-13.23,1.29c-.45,0-.66-.24-.66-.69V-10.5c0-.6.06-.69.63-.69h7.59c1.8,0,2.4-.45,2.4-2.13v-5.7c0-1.71-.48-2.19-2.37-2.19h-9.78a.377.377,0,0,0-.42.33v1.14a.377.377,0,0,0,.42.33h9.45c.57,0,.63.09.63.69v5.04c0,.6-.09.69-.66.69h-7.56c-1.8,0-2.4.45-2.4,2.13v5.97C406.89-3.21,407.37-2.67,409.17-2.58Z" transform="translate(498 429)" fill="#fff"/><path d="M53.4-38.025v-.3A14.212,14.212,0,0,0,39.225-52.5h-21.3a14.148,14.148,0,0,0-14.1,14.175v.3A13.937,13.937,0,0,0,6.3-30a13.165,13.165,0,0,0,1.8,2.25,14.021,14.021,0,0,0,9.825,3.975h18.9a7.266,7.266,0,0,1,7.275,7.2,7.266,7.266,0,0,1-7.275,7.2H20.4a7.2,7.2,0,0,1-7.2-7.2H3.825A16.58,16.58,0,0,0,20.4,0H36.825A16.58,16.58,0,0,0,53.4-16.575a16.613,16.613,0,0,0-3.75-10.5c-.225-.225-.375-.45-.6-.675a16.468,16.468,0,0,0-12.225-5.4h-18.9a4.834,4.834,0,0,1-4.8-4.8v-.3a4.834,4.834,0,0,1,4.8-4.8h21.3a4.834,4.834,0,0,1,4.8,4.8v.3Zm8.775-14.4v9.375H83.7V.075h9.375V-43.05H114.6v-9.375ZM156.9-9.375,134.925-52.5,112.95-9.375,108.15,0h10.5l4.8-9.375,11.475-22.5L146.4-9.375,151.2,0h10.5Zm47.925-14.85a12.521,12.521,0,0,0,4.05-1.125,14.218,14.218,0,0,0,8.25-12.9A14.367,14.367,0,0,0,213-48.3a14.056,14.056,0,0,0-9.975-4.125h-33.15V.075h9.375v-24.15h9.375a9.293,9.293,0,0,1,7.95,4.5l.225.45L201.825-9.3l4.8,9.375h10.5l-4.8-9.375Zm-25.575-9.15V-43.05h23.775A4.725,4.725,0,0,1,206.4-41.7a4.948,4.948,0,0,1,1.425,3.45,4.764,4.764,0,0,1-2.85,4.35,4.376,4.376,0,0,1-1.95.45ZM242.625-52.5a14.148,14.148,0,0,0-14.1,14.175V0h9.3V-24.075H271.65V-33.45H237.9v-4.875a4.834,4.834,0,0,1,4.8-4.8h38.325V-52.5ZM307.95-9.375a7.478,7.478,0,0,1-6.375-6.375V-52.425H292.2V-16.65a16.308,16.308,0,0,0,1.725,7.35A16.635,16.635,0,0,0,301.5-1.65,16.308,16.308,0,0,0,308.85.075h26.625V-9.3ZM365.325-52.5a26.279,26.279,0,0,0-26.25,26.25A26.279,26.279,0,0,0,365.325,0a26.279,26.279,0,0,0,26.25-26.25A26.279,26.279,0,0,0,365.325-52.5Zm0,43.125A16.9,16.9,0,0,1,348.45-26.25a16.9,16.9,0,0,1,16.875-16.875A16.9,16.9,0,0,1,382.2-26.25,16.9,16.9,0,0,1,365.325-9.375Zm95.7-43.125h-9.75l-9.45,31.65-7.95-11.025-1.5-2.1-4.275-5.85-4.275,5.85-1.5,2.1-7.95,11.025-9.45-31.65h-9.75L407.4-11.325l3.375,11.25,6.9-9.525,10.35-14.325L438.45-9.6l6.9,9.6,3.375-11.325Zm22.125,9.375h38.325V-52.5H483.15a14.148,14.148,0,0,0-14.1,14.175v24.15A14.148,14.148,0,0,0,483.15,0h38.325V-9.375H483.15a4.834,4.834,0,0,1-4.8-4.8v-9.9H512.1V-33.45H478.35v-4.875A4.834,4.834,0,0,1,483.15-43.125Zm84.45,18.9a12.52,12.52,0,0,0,4.05-1.125,14.218,14.218,0,0,0,8.25-12.9,14.367,14.367,0,0,0-4.125-10.05,14.056,14.056,0,0,0-9.975-4.125H532.65V.075h9.375v-24.15H551.4a9.293,9.293,0,0,1,7.95,4.5l.225.45L564.6-9.3,569.4.075h10.5L575.1-9.3Zm-25.575-9.15V-43.05H565.8a4.725,4.725,0,0,1,3.375,1.35,4.948,4.948,0,0,1,1.425,3.45,4.764,4.764,0,0,1-2.85,4.35,4.376,4.376,0,0,1-1.95.45Z" transform="translate(422 513)" fill="#ffe242"/></g></svg>