<svg xmlns="http://www.w3.org/2000/svg" viewBox="0 0 257.79 225.89"><defs><style>.cls-1{fill:#fff;}</style></defs><g id="Layer_2" data-name="Layer 2"><g id="Layer_1-2" data-name="Layer 1"><path class="cls-1" d="M56.05,0Q61.92,11.45,67.8,22.76T79.55,45.51c-1.15.58-2.31,1.14-3.49,1.68s-2.34,1.11-3.48,1.69q-4.93-9.56-9.87-19T52.84,10.73Q48,20.53,43.2,29.81T33.72,48.88c-1.2-.58-2.38-1.14-3.56-1.69s-2.36-1.1-3.56-1.68q5.87-11.43,11.75-22.75T50.1,0Z"/><path class="cls-1" d="M93.72,63.06l1.57-12.85h11.59L104.3,63.06Z"/><path class="cls-1" d="M112.21,63.06l1.57-12.85h11.59l-2.59,12.85Z"/><path class="cls-1" d="M130.69,63.06l1.57-12.85h11.59l-2.58,12.85Z"/><path class="cls-1" d="M186.7,0q5.87,11.45,11.75,22.76t11.74,22.75c-1.14.58-2.31,1.14-3.48,1.68s-2.34,1.11-3.49,1.69q-4.92-9.56-9.87-19t-9.86-19.15q-4.86,9.8-9.64,19.08t-9.48,19.07c-1.2-.58-2.39-1.14-3.56-1.69s-2.36-1.1-3.56-1.68Q163.12,34.08,169,22.76T180.74,0Z"/><path class="cls-1" d="M14.51,142.44a68.9,68.9,0,0,1-9.64-16.82,52.79,52.79,0,0,1-1-37.41A73.09,73.09,0,0,1,14.51,68.94h4.93q-4.62,7.95-6.12,11.35a62.23,62.23,0,0,0-3.67,11A64.34,64.34,0,0,0,8,105.69q0,18.39,11.43,36.75Z"/><path class="cls-1" d="M70,98.5a9.7,9.7,0,0,1,9.67-9.68,9.42,9.42,0,0,1,6.87,2.83A9.69,9.69,0,1,1,70,98.5Z"/><path class="cls-1" d="M124.08,101.6V93.76h7.85v7.84Z"/><path class="cls-1" d="M167,98.5a9.7,9.7,0,0,1,9.67-9.68,9.42,9.42,0,0,1,6.87,2.83A9.69,9.69,0,1,1,167,98.5Z"/><path class="cls-1" d="M221.69,142.44h-4.94q11.44-18.34,11.44-36.75a63.25,63.25,0,0,0-1.64-14.27,60,60,0,0,0-3.64-11,127.14,127.14,0,0,0-6.16-11.47h4.94a73.09,73.09,0,0,1,10.63,19.27,52.65,52.65,0,0,1-1,37.41A70.17,70.17,0,0,1,221.69,142.44Z"/><path class="cls-1" d="M0,223.71l16.25-58h5.51l-16.21,58Z"/><path class="cls-1" d="M113.9,180c1.8-.39,4.39-1.1,8.07-2.27,13.86-4.47,26.24-7.52,34.86-7.52,13.16,0,24.36,6.5,24.36,23,0,19.42-19.19,26.94-45.67,29.61a25.17,25.17,0,0,0-2-5.33c24.21-2.27,41.6-8.85,41.6-24,0-12.3-8.46-17.62-18.8-17.62-11.2,0-31.33,6.5-38.46,9.55a2.11,2.11,0,0,1-1.41,1.8Zm50.6-22.25A52.08,52.08,0,0,1,175,168.63l-3.13,2.43a49.36,49.36,0,0,0-10.27-10.89Zm11.44-3.21a47.81,47.81,0,0,1,10.42,10.73l-3.14,2.43A51.06,51.06,0,0,0,173,156.88Z"/><path class="cls-1" d="M226.22,225.89c-2.89-2.9-14.1-14.81-19.74-21.62-5.87-7.13-11.59-14.88-11.59-25.38,0-8.85,6.82-15.9,15.28-15.9,7.52,0,13.62,4.39,16.13,12.3h.08C229,167,235.31,163,242.52,163c8.46,0,15.27,7,15.27,15.9,0,10.5-5.72,18.25-11.59,25.38-5.64,6.81-16.92,18.72-19.82,21.62Zm-1.56-46.53c-1.72-9.63-7.83-13.55-14.49-13.55-7.6,0-12.46,6.42-12.46,13.08,0,9.72,5.41,17,11.12,23.74,5.1,6.26,14.73,16.53,17.47,19.27h.08c2.74-2.74,12.3-13,17.47-19.27,5.64-6.74,11.12-14,11.12-23.74,0-6.81-5-13.08-12.45-13.08-6.66,0-12.77,3.92-14.49,13.55Z"/><path class="cls-1" d="M80.87,132.15H43.1V128H80.87Zm0,11.09H43.1v-4.19H80.87Z"/><path class="cls-1" d="M216.36,132.15H178.58V128h37.78Zm0,11.09H178.58v-4.19h37.78Z"/></g></g></svg>