<svg xmlns="http://www.w3.org/2000/svg" viewBox="0 0 226.89 187.27"><defs><style>.cls-1{fill:#fff;}</style></defs><g id="Layer_2" data-name="Layer 2"><g id="Layer_1-2" data-name="Layer 1"><path class="cls-1" d="M52.58,0,73.39,33.52H63.78L48.1,7.81,32.47,33.52H22.8L43.5,0Z"/><path class="cls-1" d="M176.34,0l20.82,33.52h-9.62L171.86,7.81,156.23,33.52h-9.67L167.26,0Z"/><path class="cls-1" d="M138,31.23a.88.88,0,0,1,.3.61V36a.87.87,0,0,1-.3.61.84.84,0,0,1-.59.31H84.8a.7.7,0,0,1-.59-.31A1,1,0,0,1,84,36V31.84a.94.94,0,0,1,.24-.64.73.73,0,0,1,.59-.28h52.65A.84.84,0,0,1,138,31.23Z"/><path class="cls-1" d="M0,187.27l18-54.46h7.48L7.42,187.27Z"/><path class="cls-1" d="M61.85,166.12l11.62-31.69h7.11l11.59,31.69H84.24l-7.17-20.29-7.26,20.29Z"/><path class="cls-1" d="M135.57,166.12l11.63-31.69h7.1l11.6,31.69H158l-7.17-20.29-7.27,20.29Z"/><path class="cls-1" d="M201.37,132.81h7.42l18.1,54.46h-7.48Z"/><path class="cls-1" d="M14.54,120.45,12.3,117a48.7,48.7,0,0,1-4.65-9.39A59.78,59.78,0,0,1,3.26,85.64,54.24,54.24,0,0,1,7,66.13a79.66,79.66,0,0,1,7.29-14.19h6.8l-1.93,4A65.29,65.29,0,0,0,13.59,73.3a78.16,78.16,0,0,0-1,13,69.14,69.14,0,0,0,2.81,20.19,99,99,0,0,0,5.81,14Z"/><path class="cls-1" d="M22.34,102.23,36,83.38l3,3.4L25.34,105.64Z"/><path class="cls-1" d="M39.65,102.23,53.3,83.38l3,3.4L42.65,105.64Z"/><path class="cls-1" d="M83.94,86.21,57.34,75.56v-10L94.55,81.69V90.8L57.34,106.86v-10Z"/><path class="cls-1" d="M168.27,65.56v10L141.71,86.21l26.56,10.68v10L131.06,90.8V81.62Z"/><path class="cls-1" d="M168.46,102.23l13.65-18.85,3,3.4-13.65,18.86Z"/><path class="cls-1" d="M185.77,102.23l13.65-18.85,3,3.4-13.64,18.86Z"/><path class="cls-1" d="M212.31,117l-2.25,3.48H203.4a97.78,97.78,0,0,0,5.81-14A68.81,68.81,0,0,0,212,86.28a77.11,77.11,0,0,0-1-13A64.93,64.93,0,0,0,205.48,56l-1.92-4h6.79a80.43,80.43,0,0,1,7.3,14.19,54.44,54.44,0,0,1,3.69,19.51A59.58,59.58,0,0,1,217,107.58,48.77,48.77,0,0,1,212.31,117Z"/></g></g></svg>