<svg xmlns="http://www.w3.org/2000/svg" viewBox="0 0 418.92 222.92"><defs><style>.cls-1{fill:#fff;}</style></defs><g id="Layer_2" data-name="Layer 2"><g id="Layer_1-2" data-name="Layer 1"><path class="cls-1" d="M14.79,4l1.09,3.45L10.94,9l3.22,4.62-3,2.11L8,11.36,4.66,15.72l-3-2.11L4.94,9,0,7.46,1.09,4,5.93,5.59V0h4V5.59Z"/><path class="cls-1" d="M62.22,30.78H72.61v7H62.22V48.11h-7V37.78H44.88v-7H55.22V20.39h7Z"/><path class="cls-1" d="M139.64,17.11q4.23,8.25,8.47,16.4t8.47,16.41c-.83.41-1.67.82-2.51,1.21s-1.69.8-2.52,1.22q-3.56-6.9-7.11-13.7t-7.12-13.8q-3.49,7-6.94,13.75t-6.84,13.75c-.86-.42-1.72-.82-2.57-1.22l-2.57-1.21q4.25-8.25,8.48-16.41t8.47-16.4Z"/><path class="cls-1" d="M211.92,17.11q4.23,8.25,8.47,16.4t8.47,16.41c-.83.41-1.67.82-2.52,1.21s-1.68.8-2.51,1.22q-3.56-6.9-7.11-13.7t-7.12-13.8q-3.49,7-6.94,13.75t-6.84,13.75c-.86-.42-1.72-.82-2.57-1.22l-2.57-1.21q4.24-8.25,8.47-16.41t8.48-16.4Z"/><path class="cls-1" d="M323.61,27.5h20.05L327.45,39.58l6,19.15L317.17,47.15l-16.6,11.58,6.21-19.15L290.46,27.5h20.33l6.38-19Zm-6.49-5.19L314,31.79H303.79l8.13,6.1-3.16,9.43,8.36-5.76,8.07,5.76-2.88-9.43,8-6.1h-10Z"/><path class="cls-1" d="M44.4,85.57H61.25L47.63,95.73l5.08,16.1L39,102.09l-14,9.74,5.22-16.1L16.53,85.57H33.62L39,69.62Zm-5.46-4.36-2.61,8H27.74l6.83,5.13-2.66,7.93,7-4.85,6.79,4.85-2.42-7.93L50,89.18H41.55Z"/><path class="cls-1" d="M114.94,69.19A44.36,44.36,0,0,0,109.2,91a43.55,43.55,0,0,0,5.74,21.64h-6.45a43.54,43.54,0,0,1-4.42-10.54A42.33,42.33,0,0,1,102.6,91a43.19,43.19,0,0,1,1.47-11.13,45,45,0,0,1,4.42-10.71Z"/><path class="cls-1" d="M144.85,70.05h6.93l-6.41,7.83h-5.6Z"/><path class="cls-1" d="M208,73.14q-2.7,8.77-5.39,17.42t-5.39,17.33H188L177.42,73.14h7.45q.67,2.42,1.36,4.88t1.4,4.89h9.68c.47-1.61,1-3.24,1.45-4.89s1-3.27,1.54-4.88Zm-15.62,29.43q.2-1.42.45-2.94a20.2,20.2,0,0,1,.74-2.95l2.7-8.5h-7.69c.45,1.43.87,2.85,1.26,4.25s.82,2.83,1.26,4.25c.25.95.47,1.94.64,3s.31,2,.4,2.92Z"/><path class="cls-1" d="M225.51,77.44h-3.17l-6.21-6.7h5.16Z"/><path class="cls-1" d="M238.47,69.19a45.46,45.46,0,0,1,4.42,10.71A43.19,43.19,0,0,1,244.36,91a42.33,42.33,0,0,1-1.47,11.06,43.94,43.94,0,0,1-4.42,10.54H232a43.69,43.69,0,0,0,4.32-32.75A44.89,44.89,0,0,0,232,69.19Z"/><path class="cls-1" d="M254.28,104a41.16,41.16,0,0,0,13.6-12.3,54.27,54.27,0,0,0,8.19-18l5.79,2a64.22,64.22,0,0,1-9.09,20.17,45,45,0,0,1-14.17,13.3Z"/><path class="cls-1" d="M368.12,88.33h8.73v5.88h-8.73v8.69h-5.89V94.21h-8.69V88.33h8.69V79.59h5.89Z"/><path class="cls-1" d="M79,67.68a41.07,41.07,0,0,0,2.24,18.2,54.42,54.42,0,0,0,10,17l-5,3.59A64.29,64.29,0,0,1,75,87.48,45.21,45.21,0,0,1,72.3,68.24Z"/><path class="cls-1" d="M126.36,127.57A43.94,43.94,0,0,0,122,160.42,43.17,43.17,0,0,0,126.36,171H119.9a43.54,43.54,0,0,1-4.42-10.54A42.27,42.27,0,0,1,114,149.4a43.19,43.19,0,0,1,1.47-11.13,45,45,0,0,1,4.42-10.7Z"/><path class="cls-1" d="M336.94,143.94H353.8L340.17,154.1l5.08,16.1-13.72-9.74-13.95,9.74,5.22-16.1-13.72-10.16h17.09l5.36-16Zm-5.45-4.36-2.62,8h-8.59l6.84,5.13-2.66,7.93,7-4.84,6.78,4.84-2.42-7.93,6.7-5.13H334.1Z"/><path class="cls-1" d="M81.88,204.93h8.74v5.89H81.88v8.69H76v-8.69H67.31v-5.89H76V196.2h5.88Z"/><path class="cls-1" d="M126.34,185.84h6.38v22.44c0,3.32.54,5.64,1.64,6.94s2.93,2,5.5,2a8.23,8.23,0,0,0,5.5-1.64c1.28-1.1,1.91-3.54,1.91-7.31V206h6.38v3.13q0,6.93-3.58,10.27t-9.89,3.33q-7.47,0-10.65-3.68t-3.19-10.18Z"/><path class="cls-1" d="M185,186.65H192l-6.41,7.84h-5.6Z"/><path class="cls-1" d="M267.43,212h-9.54v-5.42h9.54l-4.51-8.4,4.75-2.52,4.27,7.93,4.27-7.93,4.75,2.52-4.51,8.4H286V212h-9.5l4.51,8.35-4.79,2.56L271.89,215l-4.22,7.92-4.75-2.56Z"/><path class="cls-1" d="M410.18,204.93h8.74v5.89h-8.74v8.69h-5.89v-8.69h-8.68v-5.89h8.68V196.2h5.89Z"/><path class="cls-1" d="M222.07,139a11.33,11.33,0,0,1,4.56.92,11.81,11.81,0,0,1,6.24,6.27,11.46,11.46,0,0,1,.92,4.58v16.9a11.33,11.33,0,0,1-.92,4.56,12,12,0,0,1-2.52,3.72,11.82,11.82,0,0,1-3.72,2.52,11.34,11.34,0,0,1-4.56.93h-4.61a11.26,11.26,0,0,1-4.55-.93,11.75,11.75,0,0,1-3.73-2.52,12,12,0,0,1-2.52-3.72,11.5,11.5,0,0,1-.92-4.56v-16.9a11.64,11.64,0,0,1,.92-4.58,11.79,11.79,0,0,1,6.25-6.27,11.25,11.25,0,0,1,4.55-.92Zm4.46,12.15a5.56,5.56,0,0,0-1.21-3.63A4,4,0,0,0,222,146h-4.51a4,4,0,0,0-3.3,1.5,5.56,5.56,0,0,0-1.21,3.63v16.09a5.59,5.59,0,0,0,1.21,3.64,4,4,0,0,0,3.3,1.49H222a4,4,0,0,0,3.3-1.49,5.59,5.59,0,0,0,1.21-3.64Z"/></g></g></svg>